<svg xmlns="http://www.w3.org/2000/svg" viewBox="0 0 512 512">
  <defs>
    <linearGradient id="bgGradient" x1="0%" y1="0%" x2="100%" y2="100%">
      <stop offset="0%" style="stop-color:#3B82F6;stop-opacity:1" />
      <stop offset="100%" style="stop-color:#2563EB;stop-opacity:1" />
    </linearGradient>
  </defs>
  <rect width="512" height="512" rx="96" ry="96" fill="url(#bgGradient)"/>
  <g transform="translate(96, 96) scale(13.33)">
    <path fill="white" stroke="none" d="M7 7h.01M7 3h5c.512 0 1.024.195 1.414.586l7 7a2 2 0 010 2.828l-7 7a2 2 0 01-2.828 0l-7-7A1.994 1.994 0 013 12V7a4 4 0 014-4z"/>
    <circle cx="7" cy="7" r="1.5" fill="#3B82F6"/>
  </g>
  <g transform="translate(96, 96) scale(13.33)">
    <path fill="none" stroke="white" stroke-width="1.5" stroke-linecap="round" stroke-linejoin="round" d="M7 7h.01M7 3h5c.512 0 1.024.195 1.414.586l7 7a2 2 0 010 2.828l-7 7a2 2 0 01-2.828 0l-7-7A1.994 1.994 0 013 12V7a4 4 0 014-4z"/>
  </g>
</svg>